<svg width="334" height="175" viewBox="0 0 334 175" fill="none" xmlns="http://www.w3.org/2000/svg">
<g opacity="0.7" filter="url(#filter0_f_731_35)">
<path d="M296.766 105.056L258.044 109.906C257.216 110.01 256.733 110.675 256.812 111.356C256.901 112.122 257.512 112.564 258.339 112.46L297.062 107.61C297.89 107.506 298.383 106.926 298.294 106.16C298.215 105.479 297.594 104.952 296.766 105.056ZM240.737 71.6555C238.973 70.9264 236.993 70.7427 234.877 71.0077C231.75 71.3993 228.465 72.8471 225.463 75.1232C224.868 75.6295 224.773 76.4187 225.302 76.957C225.739 77.5068 226.678 77.5619 227.283 77.1407C231.474 73.8521 236.198 72.7423 239.614 74.0416C245.202 76.3645 245.064 84.8454 244.723 88.3428C243.889 97.2563 236.968 105.982 229.895 106.955C227.688 107.231 221.338 106.385 220.664 101.374C220.493 100.705 219.882 100.263 219.055 100.367C218.319 100.459 217.744 101.136 217.823 101.817C218.756 108.263 226.236 110.004 230.191 109.508L230.283 109.497C239.471 108.26 246.635 97.6033 247.541 88.5079C247.981 83.4437 247.784 74.4866 240.738 71.6555L240.737 71.6555ZM221.275 84.8887C222.474 81.5431 224.428 75.8574 227.141 67.0539C230.475 56.359 233.687 45.4202 235.96 36.8446C236.157 36.129 235.7 35.4089 234.935 35.2457C234.17 35.0825 233.391 35.6118 233.184 36.2423C231.003 44.8064 227.791 55.7451 224.447 66.3549C221.734 75.1584 219.78 80.8441 218.673 84.1782C218.105 85.7176 217.753 86.7116 217.629 87.2454C217.08 88.955 215.723 93.3568 214.387 97.9288C212.679 103.325 211.01 109.061 210.399 111.037C210.202 111.753 210.567 112.485 211.332 112.648C211.526 112.71 211.71 112.687 211.894 112.664C212.446 112.595 212.958 112.185 213.093 111.736C213.694 109.675 215.455 103.927 217.071 98.5426C218.499 93.9591 219.774 89.654 220.322 87.9444C220.437 87.3255 220.789 86.3314 221.275 84.8887L221.275 84.8887ZM202.381 108.673C201.99 109.327 201.004 110.487 199.408 111.205C197.811 111.923 195.318 112.149 193.791 111.045C192.171 109.952 191.698 108.284 191.885 105.065C191.964 103.328 192.69 100.733 194.562 95.1436C195.419 92.8771 196.329 90.2587 197.384 87.2766C198.467 84.5499 199.594 81.386 200.846 77.6884C201.135 76.9612 200.678 76.2411 200.005 76.0664C199.229 75.818 198.441 76.2622 198.234 76.8927C196.891 80.6019 195.764 83.7658 194.772 86.4809C193.636 89.5596 192.716 92.093 191.96 94.4331C189.934 100.301 189.218 102.981 189.077 104.985C188.87 108.034 189.133 111.11 191.984 113.171C193.613 114.349 195.696 114.606 197.72 114.353C198.731 114.226 199.631 113.941 200.522 113.57C202.302 112.829 203.829 111.515 204.766 109.929C205.157 109.276 204.976 108.521 204.283 108.176C203.59 107.831 202.772 108.02 202.381 108.673V108.673ZM185.818 109.884C181.617 113.088 176.903 114.283 173.477 112.898C167.807 110.672 168.036 102.18 168.378 98.6823C169.212 89.7687 176.133 81.0427 183.114 80.082C185.137 79.8286 190.6 80.2671 191.283 85.3633C191.464 86.118 192.085 86.6447 192.903 86.4559C193.639 86.3638 194.214 85.6872 194.135 85.0062C193.211 78.6446 186.865 77.0213 182.91 77.5166L182.818 77.5282C173.538 78.7769 166.456 89.3367 165.559 98.5172C165.027 103.593 165.317 112.539 172.363 115.37C174.117 116.014 176.108 116.282 178.224 116.017C181.351 115.626 184.544 114.189 187.546 111.913C188.141 111.407 188.236 110.618 187.799 110.068C187.27 109.53 186.422 109.463 185.818 109.884L185.818 109.884ZM162.006 112.953C157.926 118.819 151.264 121.726 142.267 121.385C135.904 121.232 129.413 119.972 123.217 118.848L119.216 118.14C118.451 117.977 117.755 118.409 117.558 119.125C117.36 119.841 117.909 120.549 118.674 120.712L122.584 121.432C128.881 122.629 135.454 123.793 142.011 124.008C144.074 124.095 146.025 124.023 147.865 123.793C155.039 122.894 160.639 119.688 164.401 114.294C164.801 113.726 164.611 112.886 164.01 112.53C163.316 112.185 162.407 112.385 162.006 112.953V112.953ZM96.0614 132.527C105.443 131.351 111.901 125.879 114.923 116.519C116.795 110.93 118.26 105.046 119.662 99.4295C120.911 94.0913 122.323 88.5598 124.041 83.2492L124.714 81.0057C126.898 74.0821 129.145 66.8916 134.062 61.0075C137.429 57.0449 141.903 54.5845 147.576 53.6148C148.394 53.426 148.877 52.761 148.798 52.08C148.617 51.3253 147.905 50.8101 147.179 50.9874C140.78 52.1343 135.691 54.9307 131.914 59.3766C126.586 65.7439 124.267 73.1162 122.02 80.3068L121.347 82.5502C119.649 88.0311 118.237 93.5626 116.897 98.9122C115.494 104.529 114.019 110.327 112.229 115.82C109.487 124.368 103.521 129.26 94.9379 130.076L94.8458 130.088C89.1432 130.802 86.4824 129.581 85.3326 128.516C84.081 127.377 84.1171 126.077 84.1499 125.555C84.4751 123.528 86.1668 122.02 89.6652 120.805C94.5859 118.979 99.8057 118.93 104.933 118.893L106.701 118.844C107.446 118.837 108.031 118.245 108.044 117.553C108.048 116.775 107.427 116.248 106.681 116.255L104.904 116.219C99.5921 116.28 94.0964 116.364 88.7256 118.332C87.0273 118.976 82.0146 120.813 81.4136 125.293C81.1607 127.138 81.8473 129.039 83.3125 130.41C84.8893 131.94 88.2432 133.506 95.1416 132.642C95.4175 132.607 95.7854 132.561 96.0614 132.527L96.0614 132.527ZM75.6522 132.751L36.9295 137.601C36.1017 137.705 35.6189 138.37 35.6977 139.051C35.7865 139.817 36.3975 140.259 37.2253 140.155L75.9479 135.305C76.7757 135.201 77.2684 134.621 77.1797 133.855C77.1009 133.174 76.48 132.647 75.6522 132.751Z" fill="#DD00FF"/>
<path d="M296.766 105.056L258.044 109.906C257.216 110.01 256.733 110.675 256.812 111.356C256.901 112.122 257.512 112.564 258.339 112.46L297.062 107.61C297.89 107.506 298.383 106.926 298.294 106.16C298.215 105.479 297.594 104.952 296.766 105.056ZM240.737 71.6555C238.973 70.9264 236.993 70.7427 234.877 71.0077C231.75 71.3993 228.465 72.8471 225.463 75.1232C224.868 75.6295 224.773 76.4187 225.302 76.957C225.739 77.5068 226.678 77.5619 227.283 77.1407C231.474 73.8521 236.198 72.7423 239.614 74.0416C245.202 76.3645 245.064 84.8454 244.723 88.3428C243.889 97.2563 236.968 105.982 229.895 106.955C227.688 107.231 221.338 106.385 220.664 101.374C220.493 100.705 219.882 100.263 219.055 100.367C218.319 100.459 217.744 101.136 217.823 101.817C218.756 108.263 226.236 110.004 230.191 109.508L230.283 109.497C239.471 108.26 246.635 97.6033 247.541 88.5079C247.981 83.4437 247.784 74.4866 240.738 71.6555L240.737 71.6555ZM221.275 84.8887C222.474 81.5431 224.428 75.8574 227.141 67.0539C230.475 56.359 233.687 45.4202 235.96 36.8446C236.157 36.129 235.7 35.4089 234.935 35.2457C234.17 35.0825 233.391 35.6118 233.184 36.2423C231.003 44.8064 227.791 55.7451 224.447 66.3549C221.734 75.1584 219.78 80.8441 218.673 84.1782C218.105 85.7176 217.753 86.7116 217.629 87.2454C217.08 88.955 215.723 93.3568 214.387 97.9288C212.679 103.325 211.01 109.061 210.399 111.037C210.202 111.753 210.567 112.485 211.332 112.648C211.526 112.71 211.71 112.687 211.894 112.664C212.446 112.595 212.958 112.185 213.093 111.736C213.694 109.675 215.455 103.927 217.071 98.5426C218.499 93.9591 219.774 89.654 220.322 87.9444C220.437 87.3255 220.789 86.3314 221.275 84.8887L221.275 84.8887ZM202.381 108.673C201.99 109.327 201.004 110.487 199.408 111.205C197.811 111.923 195.318 112.149 193.791 111.045C192.171 109.952 191.698 108.284 191.885 105.065C191.964 103.328 192.69 100.733 194.562 95.1436C195.419 92.8771 196.329 90.2587 197.384 87.2766C198.467 84.5499 199.594 81.386 200.846 77.6884C201.135 76.9612 200.678 76.2411 200.005 76.0664C199.229 75.818 198.441 76.2622 198.234 76.8927C196.891 80.6019 195.764 83.7658 194.772 86.4809C193.636 89.5596 192.716 92.093 191.96 94.4331C189.934 100.301 189.218 102.981 189.077 104.985C188.87 108.034 189.133 111.11 191.984 113.171C193.613 114.349 195.696 114.606 197.72 114.353C198.731 114.226 199.631 113.941 200.522 113.57C202.302 112.829 203.829 111.515 204.766 109.929C205.157 109.276 204.976 108.521 204.283 108.176C203.59 107.831 202.772 108.02 202.381 108.673V108.673ZM185.818 109.884C181.617 113.088 176.903 114.283 173.477 112.898C167.807 110.672 168.036 102.18 168.378 98.6823C169.212 89.7687 176.133 81.0427 183.114 80.082C185.137 79.8286 190.6 80.2671 191.283 85.3633C191.464 86.118 192.085 86.6447 192.903 86.4559C193.639 86.3638 194.214 85.6872 194.135 85.0062C193.211 78.6446 186.865 77.0213 182.91 77.5166L182.818 77.5282C173.538 78.7769 166.456 89.3367 165.559 98.5172C165.027 103.593 165.317 112.539 172.363 115.37C174.117 116.014 176.108 116.282 178.224 116.017C181.351 115.626 184.544 114.189 187.546 111.913C188.141 111.407 188.236 110.618 187.799 110.068C187.27 109.53 186.422 109.463 185.818 109.884L185.818 109.884ZM162.006 112.953C157.926 118.819 151.264 121.726 142.267 121.385C135.904 121.232 129.413 119.972 123.217 118.848L119.216 118.14C118.451 117.977 117.755 118.409 117.558 119.125C117.36 119.841 117.909 120.549 118.674 120.712L122.584 121.432C128.881 122.629 135.454 123.793 142.011 124.008C144.074 124.095 146.025 124.023 147.865 123.793C155.039 122.894 160.639 119.688 164.401 114.294C164.801 113.726 164.611 112.886 164.01 112.53C163.316 112.185 162.407 112.385 162.006 112.953V112.953ZM96.0614 132.527C105.443 131.351 111.901 125.879 114.923 116.519C116.795 110.93 118.26 105.046 119.662 99.4295C120.911 94.0913 122.323 88.5598 124.041 83.2492L124.714 81.0057C126.898 74.0821 129.145 66.8916 134.062 61.0075C137.429 57.0449 141.903 54.5845 147.576 53.6148C148.394 53.426 148.877 52.761 148.798 52.08C148.617 51.3253 147.905 50.8101 147.179 50.9874C140.78 52.1343 135.691 54.9307 131.914 59.3766C126.586 65.7439 124.267 73.1162 122.02 80.3068L121.347 82.5502C119.649 88.0311 118.237 93.5626 116.897 98.9122C115.494 104.529 114.019 110.327 112.229 115.82C109.487 124.368 103.521 129.26 94.9379 130.076L94.8458 130.088C89.1432 130.802 86.4824 129.581 85.3326 128.516C84.081 127.377 84.1171 126.077 84.1499 125.555C84.4751 123.528 86.1668 122.02 89.6652 120.805C94.5859 118.979 99.8057 118.93 104.933 118.893L106.701 118.844C107.446 118.837 108.031 118.245 108.044 117.553C108.048 116.775 107.427 116.248 106.681 116.255L104.904 116.219C99.5921 116.28 94.0964 116.364 88.7256 118.332C87.0273 118.976 82.0146 120.813 81.4136 125.293C81.1607 127.138 81.8473 129.039 83.3125 130.41C84.8893 131.94 88.2432 133.506 95.1416 132.642C95.4175 132.607 95.7854 132.561 96.0614 132.527L96.0614 132.527ZM75.6522 132.751L36.9295 137.601C36.1017 137.705 35.6189 138.37 35.6977 139.051C35.7865 139.817 36.3975 140.259 37.2253 140.155L75.9479 135.305C76.7757 135.201 77.2684 134.621 77.1797 133.855C77.1009 133.174 76.48 132.647 75.6522 132.751Z" stroke="#DD00FF" stroke-width="20.0004" stroke-linecap="round" stroke-linejoin="round"/>
</g>
<g opacity="0.7" filter="url(#filter1_f_731_35)">
<path d="M296.765 105.04L258.042 109.891C257.214 109.994 256.731 110.66 256.81 111.341C256.898 112.106 257.51 112.548 258.337 112.444L297.06 107.594C297.888 107.49 298.381 106.911 298.292 106.145C298.213 105.464 297.592 104.937 296.765 105.04ZM240.736 71.6395C238.971 70.9106 236.991 70.7268 234.875 70.9918C231.747 71.3835 228.463 72.8318 225.461 75.1074C224.866 75.6139 224.771 76.4026 225.299 76.9413C225.737 77.4914 226.676 77.5467 227.28 77.1251C231.472 73.8366 236.196 72.727 239.612 74.0258C245.2 76.3484 245.062 84.8301 244.721 88.3273C243.887 97.241 236.965 105.967 229.893 106.939C227.686 107.216 221.335 106.37 220.662 101.359C220.492 100.689 219.88 100.248 219.053 100.352C218.317 100.444 217.742 101.12 217.82 101.801C218.754 108.248 226.234 109.988 230.189 109.493L230.28 109.481C239.468 108.244 246.633 97.5879 247.54 88.4921C247.979 83.4279 247.782 74.4713 240.736 71.6395ZM221.272 84.8733C222.472 81.5277 224.425 75.842 227.139 67.0386C230.472 56.343 233.685 45.4046 235.958 36.8293C236.155 36.1137 235.698 35.3932 234.933 35.2301C234.167 35.067 233.389 35.5963 233.182 36.2262C231.001 44.7908 227.789 55.7292 224.445 66.3392C221.732 75.1425 219.778 80.8283 218.671 84.1624C218.103 85.7022 217.751 86.6961 217.626 87.2297C217.078 88.9391 215.722 93.3412 214.384 97.9129C212.677 103.309 211.008 109.045 210.397 111.022C210.201 111.737 210.565 112.469 211.33 112.632C211.524 112.694 211.708 112.671 211.892 112.648C212.443 112.579 212.957 112.169 213.09 111.72C213.692 109.659 215.453 103.911 217.069 98.5265C218.497 93.9433 219.772 89.6385 220.32 87.929C220.435 87.3097 220.787 86.3159 221.272 84.8733V84.8733ZM202.378 108.658C201.987 109.312 201.002 110.471 199.406 111.189C197.809 111.908 195.316 112.133 193.788 111.03C192.169 109.937 191.696 108.268 191.883 105.049C191.961 103.313 192.688 100.717 194.56 95.1278C195.417 92.8619 196.327 90.2434 197.381 87.2608C198.466 84.5345 199.592 81.37 200.844 77.6728C201.132 76.9458 200.676 76.2251 200.002 76.0505C199.227 75.8026 198.439 76.2463 198.231 76.8772C196.888 80.5858 195.762 83.7504 194.77 86.4651C193.634 89.5439 192.714 92.0776 191.959 94.4178C189.932 100.285 189.215 102.966 189.075 104.969C188.868 108.019 189.13 111.094 191.982 113.156C193.611 114.333 195.694 114.59 197.718 114.337C198.729 114.21 199.63 113.925 200.519 113.554C202.3 112.813 203.828 111.499 204.763 109.914C205.154 109.26 204.974 108.506 204.28 108.161C203.588 107.816 202.769 108.004 202.378 108.658ZM185.816 109.869C181.615 113.072 176.901 114.268 173.475 112.883C167.805 110.657 168.035 102.164 168.376 98.6664C169.21 89.7535 176.131 81.027 183.111 80.0668C185.135 79.8133 190.598 80.2518 191.281 85.3474C191.462 86.1025 192.083 86.6287 192.901 86.4403C193.636 86.3481 194.211 85.6712 194.133 84.9902C193.209 78.6291 186.863 77.0054 182.908 77.5008L182.815 77.5124C173.536 78.7616 166.454 89.3209 165.557 98.5016C165.026 103.577 165.315 112.522 172.361 115.354C174.115 115.998 176.106 116.267 178.222 116.002C181.348 115.61 184.541 114.173 187.544 111.898C188.138 111.391 188.234 110.603 187.797 110.052C187.267 109.514 186.42 109.448 185.816 109.869V109.869ZM162.004 112.938C157.924 118.803 151.262 121.71 142.265 121.369C135.902 121.216 129.411 119.956 123.215 118.832L119.215 118.124C118.448 117.961 117.752 118.394 117.555 119.109C117.358 119.825 117.907 120.534 118.672 120.697L122.582 121.416C128.879 122.614 135.452 123.777 142.009 123.992C144.072 124.079 146.023 124.007 147.862 123.777C155.037 122.878 160.637 119.672 164.398 114.279C164.799 113.71 164.609 112.871 164.007 112.514C163.315 112.169 162.404 112.369 162.004 112.938V112.938ZM96.0598 132.511C105.441 131.336 111.899 125.864 114.921 116.503C116.793 110.914 118.258 105.031 119.66 99.4141C120.909 94.0756 122.321 88.5438 124.039 83.2334L124.712 80.9906C126.897 74.0661 129.143 66.876 134.06 60.9921C137.427 57.0291 141.901 54.569 147.574 53.5995C148.392 53.41 148.875 52.7457 148.796 52.0647C148.616 51.3094 147.903 50.7948 147.177 50.9718C140.777 52.1183 135.689 54.9152 131.912 59.3605C126.584 65.7279 124.265 73.101 122.019 80.2911L121.345 82.5341C119.646 88.0159 118.234 93.5468 116.894 98.8967C115.492 104.513 114.017 110.312 112.227 115.804C109.485 124.352 103.519 129.245 94.9357 130.061L94.8441 130.072C89.141 130.787 86.4804 129.565 85.3309 128.5C84.0788 127.361 84.1151 126.061 84.1476 125.539C84.4734 123.512 86.1646 122.005 89.6631 120.789C94.584 118.964 99.8036 118.915 104.931 118.877L106.698 118.828C107.444 118.821 108.029 118.23 108.042 117.537C108.046 116.76 107.424 116.233 106.679 116.24L104.902 116.203C99.5905 116.264 94.0942 116.348 88.7232 118.316C87.0252 118.961 82.0126 120.797 81.4112 125.277C81.1582 127.122 81.845 129.023 83.3108 130.394C84.887 131.924 88.241 133.49 95.1398 132.626L96.0588 132.511L96.0598 132.511ZM75.6497 132.735L36.9279 137.585C36.0995 137.689 35.6169 138.354 35.6958 139.035C35.7845 139.801 36.3952 140.243 37.2236 140.139L75.9454 135.289C76.7738 135.185 77.2662 134.606 77.1776 133.84C77.0987 133.159 76.4781 132.632 75.6497 132.735Z" fill="#E43AFF"/>
<path d="M296.765 105.04L258.042 109.891C257.214 109.994 256.731 110.66 256.81 111.341C256.898 112.106 257.51 112.548 258.337 112.444L297.06 107.594C297.888 107.49 298.381 106.911 298.292 106.145C298.213 105.464 297.592 104.937 296.765 105.04ZM240.736 71.6395C238.971 70.9106 236.991 70.7268 234.875 70.9918C231.747 71.3835 228.463 72.8318 225.461 75.1074C224.866 75.6139 224.771 76.4026 225.299 76.9413C225.737 77.4914 226.676 77.5467 227.28 77.1251C231.472 73.8366 236.196 72.727 239.612 74.0258C245.2 76.3484 245.062 84.8301 244.721 88.3273C243.887 97.241 236.965 105.967 229.893 106.939C227.686 107.216 221.335 106.37 220.662 101.359C220.492 100.689 219.88 100.248 219.053 100.352C218.317 100.444 217.742 101.12 217.82 101.801C218.754 108.248 226.234 109.988 230.189 109.493L230.28 109.481C239.468 108.244 246.633 97.5879 247.54 88.4921C247.979 83.4279 247.782 74.4713 240.736 71.6395ZM221.272 84.8733C222.472 81.5277 224.425 75.842 227.139 67.0386C230.472 56.343 233.685 45.4046 235.958 36.8293C236.155 36.1137 235.698 35.3932 234.933 35.2301C234.167 35.067 233.389 35.5963 233.182 36.2262C231.001 44.7908 227.789 55.7292 224.445 66.3392C221.732 75.1425 219.778 80.8283 218.671 84.1624C218.103 85.7022 217.751 86.6961 217.626 87.2297C217.078 88.9391 215.722 93.3412 214.384 97.9129C212.677 103.309 211.008 109.045 210.397 111.022C210.201 111.737 210.565 112.469 211.33 112.632C211.524 112.694 211.708 112.671 211.892 112.648C212.443 112.579 212.957 112.169 213.09 111.72C213.692 109.659 215.453 103.911 217.069 98.5265C218.497 93.9433 219.772 89.6385 220.32 87.929C220.435 87.3097 220.787 86.3159 221.272 84.8733V84.8733ZM202.378 108.658C201.987 109.312 201.002 110.471 199.406 111.189C197.809 111.908 195.316 112.133 193.788 111.03C192.169 109.937 191.696 108.268 191.883 105.049C191.961 103.313 192.688 100.717 194.56 95.1278C195.417 92.8619 196.327 90.2434 197.381 87.2608C198.466 84.5345 199.592 81.37 200.844 77.6728C201.132 76.9458 200.676 76.2251 200.002 76.0505C199.227 75.8026 198.439 76.2463 198.231 76.8772C196.888 80.5858 195.762 83.7504 194.77 86.4651C193.634 89.5439 192.714 92.0776 191.959 94.4178C189.932 100.285 189.215 102.966 189.075 104.969C188.868 108.019 189.13 111.094 191.982 113.156C193.611 114.333 195.694 114.59 197.718 114.337C198.729 114.21 199.63 113.925 200.519 113.554C202.3 112.813 203.828 111.499 204.763 109.914C205.154 109.26 204.974 108.506 204.28 108.161C203.588 107.816 202.769 108.004 202.378 108.658ZM185.816 109.869C181.615 113.072 176.901 114.268 173.475 112.883C167.805 110.657 168.035 102.164 168.376 98.6664C169.21 89.7535 176.131 81.027 183.111 80.0668C185.135 79.8133 190.598 80.2518 191.281 85.3474C191.462 86.1025 192.083 86.6287 192.901 86.4403C193.636 86.3481 194.211 85.6712 194.133 84.9902C193.209 78.6291 186.863 77.0054 182.908 77.5008L182.815 77.5124C173.536 78.7616 166.454 89.3209 165.557 98.5016C165.026 103.577 165.315 112.522 172.361 115.354C174.115 115.998 176.106 116.267 178.222 116.002C181.348 115.61 184.541 114.173 187.544 111.898C188.138 111.391 188.234 110.603 187.797 110.052C187.267 109.514 186.42 109.448 185.816 109.869V109.869ZM162.004 112.938C157.924 118.803 151.262 121.71 142.265 121.369C135.902 121.216 129.411 119.956 123.215 118.832L119.215 118.124C118.448 117.961 117.752 118.394 117.555 119.109C117.358 119.825 117.907 120.534 118.672 120.697L122.582 121.416C128.879 122.614 135.452 123.777 142.009 123.992C144.072 124.079 146.023 124.007 147.862 123.777C155.037 122.878 160.637 119.672 164.398 114.279C164.799 113.71 164.609 112.871 164.007 112.514C163.315 112.169 162.404 112.369 162.004 112.938V112.938ZM96.0598 132.511C105.441 131.336 111.899 125.864 114.921 116.503C116.793 110.914 118.258 105.031 119.66 99.4141C120.909 94.0756 122.321 88.5438 124.039 83.2334L124.712 80.9906C126.897 74.0661 129.143 66.876 134.06 60.9921C137.427 57.0291 141.901 54.569 147.574 53.5995C148.392 53.41 148.875 52.7457 148.796 52.0647C148.616 51.3094 147.903 50.7948 147.177 50.9718C140.777 52.1183 135.689 54.9152 131.912 59.3605C126.584 65.7279 124.265 73.101 122.019 80.2911L121.345 82.5341C119.646 88.0159 118.234 93.5468 116.894 98.8967C115.492 104.513 114.017 110.312 112.227 115.804C109.485 124.352 103.519 129.245 94.9357 130.061L94.8441 130.072C89.141 130.787 86.4804 129.565 85.3309 128.5C84.0788 127.361 84.1151 126.061 84.1476 125.539C84.4734 123.512 86.1646 122.005 89.6631 120.789C94.584 118.964 99.8036 118.915 104.931 118.877L106.698 118.828C107.444 118.821 108.029 118.23 108.042 117.537C108.046 116.76 107.424 116.233 106.679 116.24L104.902 116.203C99.5905 116.264 94.0942 116.348 88.7232 118.316C87.0252 118.961 82.0126 120.797 81.4112 125.277C81.1582 127.122 81.845 129.023 83.3108 130.394C84.887 131.924 88.241 133.49 95.1398 132.626L96.0588 132.511L96.0598 132.511ZM75.6497 132.735L36.9279 137.585C36.0995 137.689 35.6169 138.354 35.6958 139.035C35.7845 139.801 36.3952 140.243 37.2236 140.139L75.9454 135.289C76.7738 135.185 77.2662 134.606 77.1776 133.84C77.0987 133.159 76.4781 132.632 75.6497 132.735Z" stroke="#E43AFF" stroke-width="15.0004" stroke-linecap="round" stroke-linejoin="round"/>
</g>
<g opacity="0.8" filter="url(#filter2_f_731_35)">
<path d="M296.76 105.003L258.037 109.853C257.21 109.956 256.726 110.622 256.805 111.303C256.894 112.068 257.506 112.51 258.333 112.406L297.056 107.556C297.883 107.452 298.377 106.873 298.288 106.107C298.209 105.426 297.587 104.899 296.76 105.003ZM240.731 71.6016C238.967 70.8727 236.986 70.6889 234.87 70.9539C231.743 71.3456 228.458 72.7938 225.456 75.0695C224.861 75.5759 224.767 76.3647 225.295 76.9034C225.732 77.4535 226.672 77.5078 227.276 77.0872C231.468 73.7987 236.191 72.6881 239.608 73.9879C245.196 76.3105 245.058 84.7922 244.716 88.2893C243.883 97.2022 236.961 105.929 229.889 106.9C227.681 107.177 221.331 106.332 220.658 101.321C220.487 100.651 219.875 100.209 219.048 100.313C218.312 100.405 217.737 101.082 217.816 101.763C218.749 108.21 226.23 109.95 230.184 109.455L230.276 109.443C239.464 108.206 246.629 97.5491 247.535 88.4542C247.975 83.39 247.777 74.4324 240.731 71.6016ZM221.268 84.8354C222.467 81.4898 224.421 75.804 227.135 66.9997C230.468 56.3051 233.68 45.3667 235.954 36.7904C236.151 36.0749 235.694 35.3553 234.928 35.1922C234.163 35.0291 233.385 35.5584 233.178 36.1883C230.997 44.7529 227.785 55.6913 224.441 66.3013C221.728 75.1046 219.773 80.7904 218.666 84.1245C218.098 85.6643 217.747 86.6582 217.622 87.1918C217.073 88.9012 215.717 93.3032 214.38 97.8749C212.673 103.271 211.003 109.007 210.393 110.984C210.196 111.7 210.561 112.431 211.326 112.594C211.52 112.657 211.703 112.634 211.887 112.61C212.439 112.541 212.952 112.131 213.086 111.683C213.688 109.621 215.448 103.873 217.064 98.4886C218.493 93.9054 219.767 89.6006 220.316 87.8912C220.431 87.2719 220.783 86.278 221.268 84.8354ZM202.374 108.62C201.983 109.273 200.998 110.433 199.401 111.151C197.805 111.87 195.312 112.095 193.784 110.991C192.165 109.899 191.692 108.23 191.878 105.012C191.957 103.275 192.684 100.679 194.556 95.0899C195.412 92.823 196.322 90.2045 197.377 87.2229C198.461 84.4965 199.588 81.332 200.839 77.6349C201.128 76.9079 200.672 76.1872 199.998 76.0126C199.223 75.7647 198.435 76.2084 198.227 76.8393C196.884 80.5479 195.757 83.7124 194.766 86.4272C193.629 89.506 192.71 92.0397 191.954 94.379C189.928 100.247 189.211 102.927 189.07 104.931C188.864 107.981 189.126 111.056 191.978 113.118C193.607 114.295 195.689 114.552 197.713 114.299C198.725 114.172 199.625 113.886 200.515 113.516C202.295 112.775 203.823 111.461 204.759 109.876C205.15 109.222 204.969 108.468 204.276 108.123C203.583 107.778 202.765 107.966 202.374 108.62ZM185.811 109.831C181.611 113.034 176.896 114.229 173.47 112.844C167.801 110.619 168.03 102.126 168.372 98.6284C169.205 89.7147 176.127 80.9891 183.107 80.0279C185.131 79.7744 190.594 80.213 191.277 85.3095C191.458 86.0646 192.079 86.5908 192.896 86.4024C193.632 86.3102 194.207 85.6333 194.128 84.9523C193.205 78.5911 186.858 76.9675 182.903 77.4628L182.811 77.4744C173.531 78.7227 166.449 89.283 165.553 98.4636C165.021 103.539 165.311 112.484 172.357 115.316C174.111 115.959 176.102 116.229 178.218 115.964C181.344 115.572 184.537 114.136 187.539 111.86C188.134 111.353 188.23 110.565 187.792 110.015C187.263 109.476 186.416 109.409 185.811 109.831V109.831ZM161.999 112.899C157.92 118.765 151.258 121.672 142.261 121.331C135.898 121.178 129.406 119.918 123.211 118.794L119.21 118.087C118.444 117.923 117.748 118.356 117.551 119.071C117.354 119.787 117.902 120.495 118.668 120.659L122.577 121.378C128.875 122.576 135.448 123.738 142.005 123.954C144.067 124.041 146.019 123.969 147.858 123.739C155.032 122.84 160.633 119.634 164.394 114.241C164.795 113.672 164.605 112.833 164.003 112.476C163.31 112.131 162.4 112.331 161.999 112.899ZM96.0554 132.473C105.436 131.298 111.895 125.826 114.917 116.465C116.789 110.876 118.254 104.993 119.656 99.3761C120.904 94.0377 122.316 88.5059 124.035 83.1956L124.707 80.9517C126.892 74.0282 129.138 66.8381 134.056 60.9542C137.422 56.9912 141.897 54.531 147.569 53.5616C148.388 53.3721 148.871 52.7078 148.792 52.0258C148.611 51.2715 147.898 50.756 147.172 50.9338C140.773 52.0804 135.685 54.8772 131.907 59.3226C126.579 65.69 124.26 73.0621 122.014 80.2532L121.341 82.4962C119.642 87.977 118.23 93.5088 116.89 98.8587C115.488 104.475 114.013 110.273 112.223 115.766C109.48 124.314 103.514 129.207 94.9313 130.023L94.8397 130.034C89.1366 130.749 86.476 129.527 85.3265 128.462C84.0744 127.324 84.1107 126.023 84.1432 125.501C84.469 123.474 86.1601 121.966 89.6587 120.751C94.5796 118.926 99.7991 118.876 104.927 118.839L106.694 118.79C107.44 118.783 108.025 118.192 108.038 117.499C108.041 116.721 107.42 116.195 106.674 116.201L104.897 116.165C99.5862 116.226 94.0898 116.31 88.7188 118.278C87.0208 118.923 82.0083 120.76 81.4068 125.239C81.1538 127.084 81.8406 128.985 83.3064 130.356C84.8825 131.885 88.2366 133.452 95.1354 132.588L96.0544 132.473L96.0554 132.473ZM75.6453 132.698L36.9235 137.547C36.0951 137.651 35.6126 138.317 35.6914 138.998C35.7801 139.763 36.3908 140.205 37.2192 140.101L75.941 135.251C76.7694 135.147 77.2618 134.568 77.1732 133.802C77.0943 133.121 76.4737 132.594 75.6453 132.698Z" fill="#EB74FF"/>
<path d="M296.76 105.003L258.037 109.853C257.21 109.956 256.726 110.622 256.805 111.303C256.894 112.068 257.506 112.51 258.333 112.406L297.056 107.556C297.883 107.452 298.377 106.873 298.288 106.107C298.209 105.426 297.587 104.899 296.76 105.003ZM240.731 71.6016C238.967 70.8727 236.986 70.6889 234.87 70.9539C231.743 71.3456 228.458 72.7938 225.456 75.0695C224.861 75.5759 224.767 76.3647 225.295 76.9034C225.732 77.4535 226.672 77.5078 227.276 77.0872C231.468 73.7987 236.191 72.6881 239.608 73.9879C245.196 76.3105 245.058 84.7922 244.716 88.2893C243.883 97.2022 236.961 105.929 229.889 106.9C227.681 107.177 221.331 106.332 220.658 101.321C220.487 100.651 219.875 100.209 219.048 100.313C218.312 100.405 217.737 101.082 217.816 101.763C218.749 108.21 226.23 109.95 230.184 109.455L230.276 109.443C239.464 108.206 246.629 97.5491 247.535 88.4542C247.975 83.39 247.777 74.4324 240.731 71.6016ZM221.268 84.8354C222.467 81.4898 224.421 75.804 227.135 66.9997C230.468 56.3051 233.68 45.3667 235.954 36.7904C236.151 36.0749 235.694 35.3553 234.928 35.1922C234.163 35.0291 233.385 35.5584 233.178 36.1883C230.997 44.7529 227.785 55.6913 224.441 66.3013C221.728 75.1046 219.773 80.7904 218.666 84.1245C218.098 85.6643 217.747 86.6582 217.622 87.1918C217.073 88.9012 215.717 93.3032 214.38 97.8749C212.673 103.271 211.003 109.007 210.393 110.984C210.196 111.7 210.561 112.431 211.326 112.594C211.52 112.657 211.703 112.634 211.887 112.61C212.439 112.541 212.952 112.131 213.086 111.683C213.688 109.621 215.448 103.873 217.064 98.4886C218.493 93.9054 219.767 89.6006 220.316 87.8912C220.431 87.2719 220.783 86.278 221.268 84.8354ZM202.374 108.62C201.983 109.273 200.998 110.433 199.401 111.151C197.805 111.87 195.312 112.095 193.784 110.991C192.165 109.899 191.692 108.23 191.878 105.012C191.957 103.275 192.684 100.679 194.556 95.0899C195.412 92.823 196.322 90.2045 197.377 87.2229C198.461 84.4965 199.588 81.332 200.839 77.6349C201.128 76.9079 200.672 76.1872 199.998 76.0126C199.223 75.7647 198.435 76.2084 198.227 76.8393C196.884 80.5479 195.757 83.7124 194.766 86.4272C193.629 89.506 192.71 92.0397 191.954 94.379C189.928 100.247 189.211 102.927 189.07 104.931C188.864 107.981 189.126 111.056 191.978 113.118C193.607 114.295 195.689 114.552 197.713 114.299C198.725 114.172 199.625 113.886 200.515 113.516C202.295 112.775 203.823 111.461 204.759 109.876C205.15 109.222 204.969 108.468 204.276 108.123C203.583 107.778 202.765 107.966 202.374 108.62ZM185.811 109.831C181.611 113.034 176.896 114.229 173.47 112.844C167.801 110.619 168.03 102.126 168.372 98.6284C169.205 89.7147 176.127 80.9891 183.107 80.0279C185.131 79.7744 190.594 80.213 191.277 85.3095C191.458 86.0646 192.079 86.5908 192.896 86.4024C193.632 86.3102 194.207 85.6333 194.128 84.9523C193.205 78.5911 186.858 76.9675 182.903 77.4628L182.811 77.4744C173.531 78.7227 166.449 89.283 165.553 98.4636C165.021 103.539 165.311 112.484 172.357 115.316C174.111 115.959 176.102 116.229 178.218 115.964C181.344 115.572 184.537 114.136 187.539 111.86C188.134 111.353 188.23 110.565 187.792 110.015C187.263 109.476 186.416 109.409 185.811 109.831V109.831ZM161.999 112.899C157.92 118.765 151.258 121.672 142.261 121.331C135.898 121.178 129.406 119.918 123.211 118.794L119.21 118.087C118.444 117.923 117.748 118.356 117.551 119.071C117.354 119.787 117.902 120.495 118.668 120.659L122.577 121.378C128.875 122.576 135.448 123.738 142.005 123.954C144.067 124.041 146.019 123.969 147.858 123.739C155.032 122.84 160.633 119.634 164.394 114.241C164.795 113.672 164.605 112.833 164.003 112.476C163.31 112.131 162.4 112.331 161.999 112.899ZM96.0554 132.473C105.436 131.298 111.895 125.826 114.917 116.465C116.789 110.876 118.254 104.993 119.656 99.3761C120.904 94.0377 122.316 88.5059 124.035 83.1956L124.707 80.9517C126.892 74.0282 129.138 66.8381 134.056 60.9542C137.422 56.9912 141.897 54.531 147.569 53.5616C148.388 53.3721 148.871 52.7078 148.792 52.0258C148.611 51.2715 147.898 50.756 147.172 50.9338C140.773 52.0804 135.685 54.8772 131.907 59.3226C126.579 65.69 124.26 73.0621 122.014 80.2532L121.341 82.4962C119.642 87.977 118.23 93.5088 116.89 98.8587C115.488 104.475 114.013 110.273 112.223 115.766C109.48 124.314 103.514 129.207 94.9313 130.023L94.8397 130.034C89.1366 130.749 86.476 129.527 85.3265 128.462C84.0744 127.324 84.1107 126.023 84.1432 125.501C84.469 123.474 86.1601 121.966 89.6587 120.751C94.5796 118.926 99.7991 118.876 104.927 118.839L106.694 118.79C107.44 118.783 108.025 118.192 108.038 117.499C108.041 116.721 107.42 116.195 106.674 116.201L104.897 116.165C99.5862 116.226 94.0898 116.31 88.7188 118.278C87.0208 118.923 82.0083 120.76 81.4068 125.239C81.1538 127.084 81.8406 128.985 83.3064 130.356C84.8825 131.885 88.2366 133.452 95.1354 132.588L96.0544 132.473L96.0554 132.473ZM75.6453 132.698L36.9235 137.547C36.0951 137.651 35.6126 138.317 35.6914 138.998C35.7801 139.763 36.3908 140.205 37.2192 140.101L75.941 135.251C76.7694 135.147 77.2618 134.568 77.1732 133.802C77.0943 133.121 76.4737 132.594 75.6453 132.698Z" stroke="#EB74FF" stroke-width="3.00006" stroke-linecap="round" stroke-linejoin="round"/>
</g>
<g opacity="0.18" filter="url(#filter3_f_731_35)">
<path d="M292.849 100.928L254.776 105.654C253.962 105.755 253.487 106.403 253.565 107.067C253.652 107.813 254.253 108.244 255.067 108.143L293.14 103.418C293.954 103.317 294.439 102.751 294.352 102.005C294.274 101.341 293.663 100.827 292.849 100.928ZM237.755 68.3695C236.021 67.6587 234.073 67.4796 231.993 67.7377C228.918 68.119 225.688 69.5304 222.737 71.7487C222.152 72.2421 222.058 73.0114 222.578 73.5361C223.008 74.0721 223.932 74.1258 224.526 73.7153C228.647 70.51 233.292 69.4285 236.651 70.6952C242.145 72.9596 242.011 81.226 241.675 84.6349C240.856 93.323 234.052 101.828 227.098 102.775C224.928 103.044 218.684 102.22 218.021 97.3357C217.853 96.6831 217.252 96.2525 216.438 96.3536C215.715 96.4434 215.15 97.1028 215.227 97.7666C216.146 104.05 223.5 105.747 227.389 105.265L227.48 105.253C236.514 104.048 243.557 93.6613 244.447 84.796C244.879 79.8599 244.684 71.1293 237.755 68.3695L237.755 68.3695ZM218.62 81.267C219.798 78.0061 221.719 72.4643 224.386 63.8836C227.663 53.4593 230.82 42.7974 233.054 34.4388C233.248 33.7413 232.799 33.0394 232.046 32.8802C231.293 32.7211 230.528 33.237 230.325 33.8515C228.181 42.1989 225.024 52.8608 221.737 63.2021C219.071 71.7828 217.15 77.3246 216.062 80.5743C215.503 82.0747 215.158 83.0436 215.035 83.5639C214.496 85.2303 213.162 89.5206 211.848 93.9769C210.17 99.2361 208.53 104.827 207.929 106.754C207.735 107.451 208.095 108.164 208.847 108.324C209.037 108.384 209.218 108.362 209.399 108.339C209.942 108.272 210.445 107.873 210.578 107.435C211.169 105.426 212.899 99.8234 214.487 94.5754C215.892 90.1079 217.144 85.9117 217.683 84.2454C217.796 83.6421 218.142 82.6732 218.62 81.267L218.62 81.267ZM200.045 104.449C199.66 105.086 198.692 106.217 197.122 106.917C195.552 107.616 193.101 107.837 191.599 106.76C190.006 105.695 189.541 104.069 189.724 100.932C189.802 99.2386 190.515 96.7088 192.355 91.2612C193.198 89.0521 194.092 86.4998 195.129 83.5932C196.194 80.9356 197.302 77.8518 198.532 74.2477C198.816 73.539 198.366 72.8371 197.705 72.6667C196.942 72.4246 196.167 72.8574 195.964 73.4721C194.643 77.0874 193.536 80.1712 192.561 82.8176C191.444 85.8184 190.54 88.2877 189.797 90.5685C187.805 96.2875 187.101 98.9003 186.963 100.854C186.76 103.825 187.019 106.824 189.823 108.833C191.425 109.981 193.473 110.232 195.462 109.985C196.457 109.861 197.342 109.583 198.217 109.222C199.968 108.5 201.469 107.219 202.39 105.673C202.774 105.037 202.596 104.301 201.915 103.965C201.233 103.628 200.429 103.812 200.045 104.449V104.449ZM183.759 105.629C179.629 108.751 174.994 109.915 171.625 108.566C166.05 106.396 166.275 98.1179 166.61 94.709C167.429 86.0209 174.234 77.5159 181.097 76.5799C183.087 76.3326 188.458 76.7607 189.131 81.7281C189.308 82.4636 189.919 82.9772 190.723 82.7931C191.447 82.7034 192.012 82.044 191.934 81.3801C191.026 75.1793 184.785 73.5968 180.896 74.0794L180.806 74.0906C171.682 75.3072 164.719 85.5996 163.839 94.5479C163.316 99.4952 163.602 108.215 170.53 110.974C172.255 111.602 174.213 111.864 176.293 111.606C179.368 111.225 182.507 109.825 185.459 107.606C186.043 107.113 186.137 106.344 185.707 105.808C185.187 105.283 184.354 105.218 183.759 105.629L183.759 105.629ZM160.346 108.619C156.335 114.336 149.786 117.169 140.939 116.836C134.682 116.686 128.3 115.458 122.208 114.362L118.274 113.672C117.521 113.513 116.837 113.935 116.643 114.632C116.449 115.33 116.989 116.02 117.741 116.179L121.585 116.881C127.777 118.049 134.24 119.183 140.687 119.393C142.716 119.478 144.634 119.408 146.443 119.183C153.497 118.307 159.004 115.183 162.701 109.926C163.095 109.372 162.908 108.553 162.316 108.206C161.635 107.87 160.74 108.065 160.346 108.619V108.619ZM95.5082 127.694C104.733 126.549 111.082 121.215 114.052 112.091C115.892 106.644 117.332 100.909 118.711 95.4348C119.937 90.2317 121.325 84.8402 123.014 79.6639L123.676 77.4773C125.822 70.7289 128.031 63.7203 132.865 57.9853C136.175 54.123 140.574 51.7251 146.152 50.7803C146.956 50.5962 147.431 49.9481 147.353 49.2843C147.175 48.5487 146.475 48.0465 145.761 48.2192C139.469 49.3368 134.466 52.0623 130.752 56.3955C125.514 62.6016 123.235 69.7873 121.027 76.7958L120.365 78.9825C118.696 84.3247 117.308 89.7162 115.991 94.9305C114.612 100.405 113.163 106.057 111.404 111.41C108.708 119.742 102.843 124.51 94.4032 125.305L94.3127 125.317C88.7056 126.012 86.0892 124.822 84.9586 123.784C83.7279 122.674 83.7632 121.407 83.7954 120.898C84.1149 118.922 85.7781 117.453 89.2178 116.268C94.056 114.489 99.1883 114.441 104.23 114.405L105.968 114.358C106.701 114.351 107.276 113.774 107.289 113.099C107.292 112.341 106.681 111.828 105.948 111.835L104.201 111.799C98.978 111.858 93.5743 111.939 88.2937 113.857C86.6239 114.485 81.6953 116.276 81.1048 120.642C80.8564 122.441 81.5317 124.293 82.9725 125.63C84.5231 127.121 87.821 128.648 94.6038 127.806C94.8751 127.772 95.2368 127.727 95.5081 127.694L95.5082 127.694ZM75.4408 127.911L37.367 132.637C36.5531 132.738 36.0784 133.386 36.156 134.05C36.2433 134.797 36.8442 135.227 37.6581 135.126L75.7318 130.401C76.5457 130.3 77.0301 129.734 76.9428 128.988C76.8652 128.324 76.2547 127.81 75.4408 127.911Z" fill="black"/>
</g>
<path d="M296.759 104.994L258.037 109.844C257.209 109.947 256.726 110.612 256.805 111.293C256.893 112.06 257.504 112.501 258.332 112.397L297.055 107.547C297.883 107.444 298.375 106.864 298.287 106.098C298.208 105.417 297.587 104.89 296.759 104.994ZM240.73 71.5929C238.966 70.8638 236.985 70.6801 234.87 70.9451C231.743 71.3368 228.458 72.7846 225.455 75.0606C224.861 75.5669 224.766 76.3561 225.295 76.8944C225.731 77.4443 226.671 77.4993 227.275 77.0781C231.467 73.7895 236.191 72.6797 239.607 73.9791C245.195 76.3019 245.057 84.7828 244.716 88.2802C243.881 97.1938 236.96 105.92 229.888 106.892C227.681 107.168 221.331 106.323 220.657 101.312C220.486 100.642 219.875 100.201 219.047 100.304C218.312 100.396 217.737 101.073 217.816 101.754C218.749 108.201 226.229 109.941 230.184 109.446L230.276 109.434C239.464 108.197 246.628 97.5407 247.534 88.4453C247.974 83.3811 247.777 74.424 240.73 71.5929L240.73 71.5929ZM221.268 84.8261C222.466 81.4805 224.421 75.7948 227.134 66.9913C230.468 56.2964 233.68 45.3577 235.953 36.782C236.15 36.0665 235.693 35.3464 234.928 35.1831C234.162 35.0199 233.384 35.5492 233.177 36.1797C230.996 44.7438 227.784 55.6826 224.44 66.2923C221.727 75.0958 219.773 80.7815 218.666 84.1156C218.098 85.655 217.746 86.649 217.621 87.1828C217.073 88.8924 215.716 93.2942 214.379 97.8662C212.672 103.262 211.003 108.998 210.392 110.975C210.195 111.69 210.56 112.422 211.325 112.585C211.519 112.647 211.703 112.624 211.887 112.601C212.439 112.532 212.951 112.122 213.086 111.674C213.687 109.612 215.447 103.864 217.063 98.4801C218.492 93.8965 219.766 89.5915 220.315 87.8818C220.43 87.2629 220.781 86.2688 221.268 84.8261V84.8261ZM202.373 108.611C201.983 109.264 200.997 110.424 199.401 111.142C197.804 111.86 195.311 112.086 193.783 110.982C192.164 109.89 191.691 108.222 191.878 105.003C191.957 103.266 192.683 100.67 194.555 95.0811C195.412 92.8146 196.322 90.1961 197.376 87.214C198.46 84.4873 199.587 81.3234 200.838 77.6258C201.127 76.8987 200.671 76.1786 199.997 76.0038C199.222 75.7555 198.434 76.1997 198.227 76.8301C196.883 80.5393 195.757 83.7032 194.765 86.4184C193.628 89.4971 192.709 92.0305 191.953 94.3705C189.927 100.238 189.211 102.919 189.069 104.923C188.863 107.971 189.125 111.048 191.977 113.109C193.606 114.286 195.689 114.544 197.712 114.29C198.724 114.163 199.624 113.878 200.514 113.507C202.295 112.766 203.822 111.452 204.758 109.867C205.149 109.213 204.969 108.459 204.275 108.114C203.582 107.769 202.764 107.957 202.373 108.611V108.611ZM185.811 109.822C181.61 113.025 176.896 114.22 173.469 112.836C167.8 110.61 168.029 102.117 168.371 98.6198C169.205 89.7061 176.126 80.9802 183.106 80.0195C185.13 79.766 190.593 80.2045 191.276 85.3007C191.457 86.0554 192.078 86.5822 192.896 86.3934C193.631 86.3012 194.206 85.6247 194.127 84.9436C193.204 78.582 186.858 76.9587 182.903 77.4541L182.811 77.4656C173.531 78.7143 166.449 89.2741 165.552 98.4546C165.02 103.53 165.31 112.476 172.356 115.307C174.11 115.951 176.101 116.22 178.216 115.955C181.344 115.563 184.536 114.127 187.539 111.851C188.133 111.345 188.229 110.555 187.792 110.005C187.263 109.467 186.415 109.401 185.811 109.822L185.811 109.822ZM161.999 112.891C157.919 118.756 151.257 121.663 142.26 121.322C135.897 121.169 129.406 119.909 123.21 118.785L119.209 118.077C118.444 117.914 117.747 118.347 117.55 119.062C117.353 119.778 117.902 120.487 118.667 120.65L122.576 121.369C128.874 122.567 135.447 123.73 142.004 123.945C144.066 124.032 146.018 123.961 147.857 123.73C155.032 122.832 160.632 119.625 164.393 114.232C164.794 113.663 164.604 112.823 164.002 112.467C163.309 112.122 162.399 112.322 161.999 112.891V112.891ZM96.0542 132.464C105.436 131.289 111.894 125.816 114.916 116.456C116.788 110.867 118.253 104.983 119.655 99.3669C120.903 94.0287 122.316 88.4972 124.033 83.1866L124.707 80.9432C126.891 74.0196 129.138 66.8291 134.055 60.9449C137.422 56.9823 141.896 54.5219 147.569 53.5523C148.387 53.3634 148.87 52.6984 148.791 52.0174C148.61 51.2628 147.897 50.7475 147.171 50.9248C140.772 52.0717 135.684 54.8681 131.907 59.314C126.579 65.6814 124.26 73.0537 122.013 80.2442L121.34 82.4876C119.642 87.9685 118.229 93.5 116.889 98.8497C115.487 104.466 114.012 110.265 112.222 115.757C109.479 124.305 103.514 129.198 94.9306 130.014L94.8386 130.025C89.136 130.74 86.4752 129.518 85.3254 128.453C84.0738 127.315 84.1099 126.015 84.1427 125.492C84.4679 123.465 86.1596 121.958 89.658 120.742C94.5787 118.917 99.7985 118.868 104.926 118.83L106.694 118.781C107.439 118.774 108.024 118.183 108.037 117.49C108.04 116.713 107.419 116.186 106.674 116.193L104.897 116.156C99.5849 116.217 94.0892 116.301 88.7184 118.269C87.0201 118.914 82.0074 120.751 81.4064 125.23C81.1535 127.076 81.8401 128.976 83.3052 130.347C84.8821 131.877 88.236 133.443 95.1344 132.579C95.4103 132.545 95.7782 132.499 96.0542 132.464L96.0542 132.464ZM75.645 132.688L36.9223 137.539C36.0945 137.642 35.6117 138.307 35.6905 138.988C35.7792 139.754 36.3903 140.196 37.2181 140.092L75.9407 135.242C76.7685 135.139 77.2612 134.559 77.1725 133.793C77.0937 133.112 76.4728 132.585 75.645 132.688Z" fill="#F3AFFF"/>
<defs>
<filter id="filter0_f_731_35" x="0.949865" y="0.455511" width="332.09" height="174.472" filterUnits="userSpaceOnUse" color-interpolation-filters="sRGB">
<feFlood flood-opacity="0" result="BackgroundImageFix"/>
<feBlend mode="normal" in="SourceGraphic" in2="BackgroundImageFix" result="shape"/>
<feGaussianBlur stdDeviation="12.3736" result="effect1_foregroundBlur_731_35"/>
</filter>
<filter id="filter1_f_731_35" x="22.0064" y="21.5036" width="289.974" height="132.345" filterUnits="userSpaceOnUse" color-interpolation-filters="sRGB">
<feFlood flood-opacity="0" result="BackgroundImageFix"/>
<feBlend mode="normal" in="SourceGraphic" in2="BackgroundImageFix" result="shape"/>
<feGaussianBlur stdDeviation="3.09341" result="effect1_foregroundBlur_731_35"/>
</filter>
<filter id="filter2_f_731_35" x="30.7041" y="30.1803" width="272.572" height="114.917" filterUnits="userSpaceOnUse" color-interpolation-filters="sRGB">
<feFlood flood-opacity="0" result="BackgroundImageFix"/>
<feBlend mode="normal" in="SourceGraphic" in2="BackgroundImageFix" result="shape"/>
<feGaussianBlur stdDeviation="1.74004" result="effect1_foregroundBlur_731_35"/>
</filter>
<filter id="filter3_f_731_35" x="35.1769" y="31.8802" width="260.156" height="104.231" filterUnits="userSpaceOnUse" color-interpolation-filters="sRGB">
<feFlood flood-opacity="0" result="BackgroundImageFix"/>
<feBlend mode="normal" in="SourceGraphic" in2="BackgroundImageFix" result="shape"/>
<feGaussianBlur stdDeviation="0.485418" result="effect1_foregroundBlur_731_35"/>
</filter>
</defs>
</svg>
